<?xml version="1.0" encoding="UTF-8" standalone="no"?>
<!DOCTYPE svg PUBLIC "-//W3C//DTD SVG 1.1//EN" "http://www.w3.org/Graphics/SVG/1.1/DTD/svg11.dtd">
<svg width="100%" height="100%" viewBox="0 0 591 591" version="1.1" xmlns="http://www.w3.org/2000/svg" xmlns:xlink="http://www.w3.org/1999/xlink" xml:space="preserve" xmlns:serif="http://www.serif.com/" style="fill-rule:evenodd;clip-rule:evenodd;stroke-linejoin:round;stroke-miterlimit:2;">
    <g transform="matrix(1.1726,0,0,1.1726,-106.59,-220.199)">
        <g transform="matrix(350.369,0,0,350.369,124.416,573.04)">
            <path d="M0.648,-0.762L0.648,-0L0.486,-0L0.486,-0.37L0.409,-0.187L0.287,-0.187L0.21,-0.37L0.21,-0L0.048,-0L0.048,-0.762L0.21,-0.762L0.348,-0.39L0.486,-0.762L0.648,-0.762Z" style="fill-rule:nonzero;"/>
        </g>
        <g transform="matrix(350.369,0,0,350.369,369.742,573.04)">
            <path d="M0.252,-0.427L0.214,-0.232L0.29,-0.232L0.252,-0.427ZM0.176,-0.762L0.328,-0.762L0.498,-0L0.336,-0L0.32,-0.08L0.184,-0.08L0.168,-0L0.006,-0L0.176,-0.762Z" style="fill-rule:nonzero;"/>
        </g>
    </g>
</svg>
